<?xml version="1.0" encoding="UTF-8" standalone="no"?>
<!-- Created with Keyshape -->
<svg xmlns="http://www.w3.org/2000/svg" id="ninja-working" viewBox="0 0 600 400" text-rendering="geometricPrecision" shape-rendering="geometricPrecision" style="white-space: pre;">
    <defs>
        <linearGradient id="Gradient-0" x1="72.4979" y1="-3.72532" x2="72.4979" y2="65.2747" gradientUnits="userSpaceOnUse">
            <stop offset="0" stop-color="#ffffff"/>
            <stop offset="1" stop-color="#c1cac1"/>
        </linearGradient>
        <linearGradient id="Gradient-1" x1="72.4979" y1="-3.72532" x2="72.4979" y2="65.2747" gradientUnits="userSpaceOnUse">
            <stop offset="0" stop-color="#000000" stop-opacity="0.4"/>
            <stop offset="1" stop-color="#000000" stop-opacity="0.03"/>
        </linearGradient>
        <linearGradient id="Gradient-2" x1="72.5007" y1="1.2747" x2="72.5007" y2="63.2747" gradientUnits="userSpaceOnUse">
            <stop offset="0" stop-color="#000000" stop-opacity="0.2"/>
            <stop offset="1" stop-color="#000000" stop-opacity="0.05"/>
        </linearGradient>
        <linearGradient id="Gradient-3" x1="159.989" y1="-8.33695" x2="37.4042" y2="44.6554" gradientUnits="userSpaceOnUse">
            <stop offset="0.55" stop-color="#040404"/>
            <stop offset="0.58" stop-color="#4d4e4d"/>
            <stop offset="1" stop-color="#222222"/>
        </linearGradient>
        <linearGradient id="Gradient-4" x1="69.0289" y1="48.0707" x2="12.964" y2="65.3215" gradientUnits="userSpaceOnUse">
            <stop offset="0" stop-color="#666667"/>
            <stop offset="0.505" stop-color="#505050"/>
            <stop offset="0.515" stop-color="#2f2e2e"/>
        </linearGradient>
    </defs>
    <g id="Cool-Ninja" transform="translate(327,200) scale(1.56626,1.56626) translate(-134.295,-60.3542)">
        <path id="left-shadow" fill="#000000" fill-opacity="0.1" stroke="none" stroke-linecap="round" d="M22.9813,0.369704C25.7161,11.7575,17.0093,23.8859,3.29061,12.2998C-26.2455,-12.645,-27.8864,-33.2515,-16.4001,-36.5052C-5.34856,-39.6358,18.0616,-20.1159,22.9813,0.369704Z" transform="translate(19.0244,56.8846)"/>
        <path id="right-shadow" fill="#000000" stroke="none" stroke-linecap="round" d="M36.5907,-52.5065C31.0453,-30.5065,-4.40933,-12.0065,-4.40933,-7.50654C-4.40933,-3.50654,21.9202,9.88514,15.5907,23.4935C5.59067,44.9935,-31.7051,61.5101,-41.4093,60.4935C-93.9093,54.9935,-20.4838,-71.5065,3.59067,-71.5065C27.6651,-71.5065,39.8903,-65.597,36.5907,-52.5065Z" fill-opacity="0.1" transform="translate(266.504,90.0569) translate(-31.0453,0)"/>
        <path id="legs" fill="#252925" stroke="none" stroke-linecap="round" d="M79.5,20.8971C54.6252,48.714,53.1092,54.8971,-3.5,54.8971C-61.5,54.8971,-63.8552,48.918,-88.5,20.8971C-125,-20.6029,-129.5,-47.1029,-114.5,-59.1029C-98.8827,-71.5967,-56,-47.1029,0,-47.1029C68.5,-47.1029,88,-71.1029,107.5,-57.1029C120.783,-47.5661,126,-31.1029,79.5,20.8971Z" transform="translate(122.549,62.6533)"/>
        <path id="laptop-Bottom" fill="url(#Gradient-0)" fill-opacity="1" stroke="none" stroke-linecap="round" d="M23,-13.9799L125,-13.9799C133,-13.9799,134.5,-10.1941,134,-3.9799L135,54.2176C135,59.5201,135.5,63.0201,133,63.2564L11,63.194C9,63.194,9,61.0201,9,54.2176L10,-3.9799C10,-12.4799,10,-15.4799,23,-13.9799Z" filter="none" transform="translate(117.549,37.4231) rotate(180) scale(-1,1) translate(-69.5,-32.1474)"/>
        <g id="Keyboard" transform="translate(118.893,33.0504) translate(-54.5706,-19.5)">
            <g id="top-row" transform="translate(54.4728,1.5) translate(-53.5,-1.5)">
                <rect width="4" height="3" fill="#000000" stroke="#000000" stroke-linecap="square" stroke-linejoin="round" transform="translate(2,1.5) translate(-2,-1.5)"/>
                <rect width="4" height="3" fill="#000000" stroke="#000000" stroke-linecap="square" stroke-linejoin="round" transform="translate(9.94568,1.5) translate(-2,-1.5)"/>
                <rect width="4" height="3" fill="#000000" stroke="#000000" stroke-linecap="square" stroke-linejoin="round" transform="translate(16,1.5) translate(-2,-1.5)"/>
                <rect width="4" height="3" fill="#000000" stroke="#000000" stroke-linecap="square" stroke-linejoin="round" transform="translate(22,1.5) translate(-2,-1.5)"/>
                <rect width="4" height="3" fill="#000000" stroke="#000000" stroke-linecap="square" stroke-linejoin="round" transform="translate(28.1379,1.5) translate(-2,-1.5)"/>
                <rect width="4" height="3" fill="#000000" stroke="#000000" stroke-linecap="square" stroke-linejoin="round" transform="translate(34,1.5) translate(-2,-1.5)"/>
                <rect width="4" height="3" fill="#000000" stroke="#000000" stroke-linecap="square" stroke-linejoin="round" transform="translate(40,1.5) translate(-2,-1.5)"/>
                <rect width="4" height="3" fill="#000000" stroke="#000000" stroke-linecap="square" stroke-linejoin="round" transform="translate(46,1.5) translate(-2,-1.5)"/>
                <rect width="4" height="3" fill="#000000" stroke="#000000" stroke-linecap="square" stroke-linejoin="round" transform="translate(52.3665,1.5) translate(-2,-1.5)"/>
                <rect width="4" height="3" fill="#000000" stroke="#000000" stroke-linecap="square" stroke-linejoin="round" transform="translate(59.2535,1.5) translate(-2,-1.5)"/>
                <rect width="4" height="3" fill="#000000" stroke="#000000" stroke-linecap="square" stroke-linejoin="round" transform="translate(66,1.5) translate(-2,-1.5)"/>
                <rect width="4" height="3" fill="#000000" stroke="#000000" stroke-linecap="square" stroke-linejoin="round" transform="translate(72,1.5) translate(-2,-1.5)"/>
                <rect width="4" height="3" fill="#000000" stroke="#000000" stroke-linecap="square" stroke-linejoin="round" transform="translate(79.0311,1.5) translate(-2,-1.5)"/>
                <rect width="4" height="3" fill="#000000" stroke="#000000" stroke-linecap="square" stroke-linejoin="round" transform="translate(86,1.5) translate(-2,-1.5)"/>
                <rect width="4" height="3" fill="#000000" stroke="#000000" stroke-linecap="square" stroke-linejoin="round" transform="translate(92.3923,1.5) translate(-2,-1.5)"/>
                <rect width="4" height="3" fill="#000000" stroke="#000000" stroke-linecap="square" stroke-linejoin="round" transform="translate(99,1.5) translate(-2,-1.5)"/>
                <rect width="4" height="3" fill="#000000" stroke="#000000" stroke-linecap="square" stroke-linejoin="round" transform="translate(105,1.5) translate(-2,-1.5)"/>
            </g>
            <g id="row-two" transform="translate(54.9728,7.5) translate(-54,-2.5)">
                <rect width="9.94568" height="5" fill="#000000" stroke="#000000" stroke-linecap="square" stroke-linejoin="round" transform="translate(100.054,1.5) translate(-2,-1.5)"/>
                <rect width="4" height="5" fill="#000000" stroke="#000000" stroke-linecap="square" stroke-linejoin="round" transform="translate(2,1.5) translate(-2,-1.5)"/>
                <rect width="4.94568" height="5" fill="#000000" stroke="#000000" stroke-linecap="square" stroke-linejoin="round" transform="translate(9,1.5) translate(-2,-1.5)"/>
                <rect width="4.94568" height="5" fill="#000000" stroke="#000000" stroke-linecap="square" stroke-linejoin="round" transform="translate(16,1.5) translate(-2,-1.5)"/>
                <rect width="4.94568" height="5" fill="#000000" stroke="#000000" stroke-linecap="square" stroke-linejoin="round" transform="translate(23.1922,1.5) translate(-2,-1.5)"/>
                <rect width="4.94568" height="5" fill="#000000" stroke="#000000" stroke-linecap="square" stroke-linejoin="round" transform="translate(31.0543,1.5) translate(-2,-1.5)"/>
                <rect width="4.94568" height="5" fill="#000000" stroke="#000000" stroke-linecap="square" stroke-linejoin="round" transform="translate(39.0543,1.5) translate(-2,-1.5)"/>
                <rect width="4.94568" height="5" fill="#000000" stroke="#000000" stroke-linecap="square" stroke-linejoin="round" transform="translate(46.0314,1.5) translate(-2,-1.5)"/>
                <rect width="4.94568" height="5" fill="#000000" stroke="#000000" stroke-linecap="square" stroke-linejoin="round" transform="translate(53.0314,1.5) translate(-2,-1.5)"/>
                <rect width="4.94568" height="5" fill="#000000" stroke="#000000" stroke-linecap="square" stroke-linejoin="round" transform="translate(60.2234,1.5) translate(-2,-1.5)"/>
                <rect width="4.94568" height="5" fill="#000000" stroke="#000000" stroke-linecap="square" stroke-linejoin="round" transform="translate(68.0854,1.5) translate(-2,-1.5)"/>
                <rect width="4.94568" height="5" fill="#000000" stroke="#000000" stroke-linecap="square" stroke-linejoin="round" transform="translate(76.0854,1.5) translate(-2,-1.5)"/>
                <rect width="4.94568" height="5" fill="#000000" stroke="#000000" stroke-linecap="square" stroke-linejoin="round" transform="translate(85.085,1.5) translate(-2,-1.5)"/>
                <rect width="4.94568" height="5" fill="#000000" stroke="#000000" stroke-linecap="square" stroke-linejoin="round" transform="translate(93.085,1.5) translate(-2,-1.5)"/>
            </g>
            <g id="row-three" transform="translate(65.9728,14.5) translate(-54,-2.5)">
                <rect width="9.94568" height="5" fill="#000000" stroke="#000000" stroke-linecap="square" stroke-linejoin="round" transform="translate(-9.97284,1.5) translate(-2,-1.5)"/>
                <rect width="4" height="5" fill="#000000" stroke="#000000" stroke-linecap="square" stroke-linejoin="round" transform="translate(2,1.5) translate(-2,-1.5)"/>
                <rect width="4.94568" height="5" fill="#000000" stroke="#000000" stroke-linecap="square" stroke-linejoin="round" transform="translate(9,1.5) translate(-2,-1.5)"/>
                <rect width="4.94568" height="5" fill="#000000" stroke="#000000" stroke-linecap="square" stroke-linejoin="round" transform="translate(16,1.5) translate(-2,-1.5)"/>
                <rect width="4.94568" height="5" fill="#000000" stroke="#000000" stroke-linecap="square" stroke-linejoin="round" transform="translate(23.1922,1.5) translate(-2,-1.5)"/>
                <rect width="4.94568" height="5" fill="#000000" stroke="#000000" stroke-linecap="square" stroke-linejoin="round" transform="translate(31.0543,1.5) translate(-2,-1.5)"/>
                <rect width="4.94568" height="5" fill="#000000" stroke="#000000" stroke-linecap="square" stroke-linejoin="round" transform="translate(39.0543,1.5) translate(-2,-1.5)"/>
                <rect width="4.94568" height="5" fill="#000000" stroke="#000000" stroke-linecap="square" stroke-linejoin="round" transform="translate(46.0314,1.5) translate(-2,-1.5)"/>
                <rect width="4.94568" height="5" fill="#000000" stroke="#000000" stroke-linecap="square" stroke-linejoin="round" transform="translate(53.0314,1.5) translate(-2,-1.5)"/>
                <rect width="4.94568" height="5" fill="#000000" stroke="#000000" stroke-linecap="square" stroke-linejoin="round" transform="translate(60.2234,1.5) translate(-2,-1.5)"/>
                <rect width="4.94568" height="5" fill="#000000" stroke="#000000" stroke-linecap="square" stroke-linejoin="round" transform="translate(68.0854,1.5) translate(-2,-1.5)"/>
                <rect width="4.94568" height="5" fill="#000000" stroke="#000000" stroke-linecap="square" stroke-linejoin="round" transform="translate(75,1.5) translate(-2,-1.5)"/>
                <rect width="4.94568" height="5" fill="#000000" stroke="#000000" stroke-linecap="square" stroke-linejoin="round" transform="translate(82.085,1.5) translate(-2,-1.5)"/>
                <rect width="9.94568" height="5" fill="#000000" stroke="#000000" stroke-linecap="square" stroke-linejoin="round" transform="translate(89.054,1.5) translate(-2,-1.5)"/>
            </g>
            <g id="row-four" transform="translate(65.9728,21.5) translate(-54,-2.5)">
                <rect width="13.9728" height="5" fill="#000000" stroke="#000000" stroke-linecap="square" stroke-linejoin="round" transform="translate(-9.97284,1.5) translate(-2,-1.5)"/>
                <rect width="4.94568" height="5" fill="#000000" stroke="#000000" stroke-linecap="square" stroke-linejoin="round" transform="translate(6,1.5) translate(-2,-1.5)"/>
                <rect width="4.94568" height="5" fill="#000000" stroke="#000000" stroke-linecap="square" stroke-linejoin="round" transform="translate(13,1.5) translate(-2,-1.5)"/>
                <rect width="4.94568" height="5" fill="#000000" stroke="#000000" stroke-linecap="square" stroke-linejoin="round" transform="translate(20.1922,1.5) translate(-2,-1.5)"/>
                <rect width="4.94568" height="5" fill="#000000" stroke="#000000" stroke-linecap="square" stroke-linejoin="round" transform="translate(28.0543,1.5) translate(-2,-1.5)"/>
                <rect width="4.94568" height="5" fill="#000000" stroke="#000000" stroke-linecap="square" stroke-linejoin="round" transform="translate(36.0543,1.5) translate(-2,-1.5)"/>
                <rect width="4.94568" height="5" fill="#000000" stroke="#000000" stroke-linecap="square" stroke-linejoin="round" transform="translate(43.0314,1.5) translate(-2,-1.5)"/>
                <rect width="4.94568" height="5" fill="#000000" stroke="#000000" stroke-linecap="square" stroke-linejoin="round" transform="translate(50.0314,1.5) translate(-2,-1.5)"/>
                <rect width="4.94568" height="5" fill="#000000" stroke="#000000" stroke-linecap="square" stroke-linejoin="round" transform="translate(57.2234,1.5) translate(-2,-1.5)"/>
                <rect width="4.94568" height="5" fill="#000000" stroke="#000000" stroke-linecap="square" stroke-linejoin="round" transform="translate(65.0854,1.5) translate(-2,-1.5)"/>
                <rect width="4.94568" height="5" fill="#000000" stroke="#000000" stroke-linecap="square" stroke-linejoin="round" transform="translate(72,1.5) translate(-2,-1.5)"/>
                <rect width="4.94568" height="5" fill="#000000" stroke="#000000" stroke-linecap="square" stroke-linejoin="round" transform="translate(79.085,1.5) translate(-2,-1.5)"/>
                <rect width="11.969" height="5" fill="#000000" stroke="#000000" stroke-linecap="square" stroke-linejoin="round" transform="translate(89.054,1.5) translate(-4.02332,-1.5)"/>
            </g>
            <g id="row-five" transform="translate(65.9728,29.5) translate(-54,-2.5)">
                <rect width="19.9185" height="5" fill="#000000" stroke="#000000" stroke-linecap="square" stroke-linejoin="round" transform="translate(-9.97284,1.5) translate(-2,-1.5)"/>
                <rect width="4.94568" height="5" fill="#000000" stroke="#000000" stroke-linecap="square" stroke-linejoin="round" transform="translate(13,1.5) translate(-2,-1.5)"/>
                <rect width="4.94568" height="5" fill="#000000" stroke="#000000" stroke-linecap="square" stroke-linejoin="round" transform="translate(20.1922,1.5) translate(-2,-1.5)"/>
                <rect width="4.94568" height="5" fill="#000000" stroke="#000000" stroke-linecap="square" stroke-linejoin="round" transform="translate(28.0543,1.5) translate(-2,-1.5)"/>
                <rect width="4.94568" height="5" fill="#000000" stroke="#000000" stroke-linecap="square" stroke-linejoin="round" transform="translate(36.0543,1.5) translate(-2,-1.5)"/>
                <rect width="4.94568" height="5" fill="#000000" stroke="#000000" stroke-linecap="square" stroke-linejoin="round" transform="translate(43.0314,1.5) translate(-2,-1.5)"/>
                <rect width="4.94568" height="5" fill="#000000" stroke="#000000" stroke-linecap="square" stroke-linejoin="round" transform="translate(50.0314,1.5) translate(-2,-1.5)"/>
                <rect width="4.94568" height="5" fill="#000000" stroke="#000000" stroke-linecap="square" stroke-linejoin="round" transform="translate(57.2234,1.5) translate(-2,-1.5)"/>
                <rect width="4.94568" height="5" fill="#000000" stroke="#000000" stroke-linecap="square" stroke-linejoin="round" transform="translate(65.0854,1.5) translate(-2,-1.5)"/>
                <rect width="4.94568" height="5" fill="#000000" stroke="#000000" stroke-linecap="square" stroke-linejoin="round" transform="translate(72,1.5) translate(-2,-1.5)"/>
                <rect width="19.969" height="5" fill="#000000" stroke="#000000" stroke-linecap="square" stroke-linejoin="round" transform="translate(89.054,1.5) translate(-12.0233,-1.5)"/>
            </g>
            <g id="row-six" transform="translate(43,36.5) translate(-54,-2.5)">
                <rect width="4.94568" height="5" fill="#000000" stroke="#000000" stroke-linecap="square" stroke-linejoin="round" transform="translate(13,1.5) translate(-2,-1.5)"/>
                <rect width="4.94568" height="5" fill="#000000" stroke="#000000" stroke-linecap="square" stroke-linejoin="round" transform="translate(20.1922,1.5) translate(-2,-1.5)"/>
                <rect width="4.94568" height="5" fill="#000000" stroke="#000000" stroke-linecap="square" stroke-linejoin="round" transform="translate(28.0543,1.5) translate(-2,-1.5)"/>
                <rect width="4.94568" height="5" fill="#000000" stroke="#000000" stroke-linecap="square" stroke-linejoin="round" transform="translate(36.0543,1.5) translate(-2,-1.5)"/>
                <rect width="64.4993" height="5" fill="#000000" stroke="#000000" stroke-linecap="square" stroke-linejoin="round" transform="translate(43.0314,1.5) translate(-2,-1.5)"/>
                <rect width="4.94568" height="5" fill="#000000" stroke="#000000" stroke-linecap="square" stroke-linejoin="round" transform="translate(110.004,1.5) translate(-2,-1.5)"/>
                <rect width="4.94568" height="5" fill="#000000" stroke="#000000" stroke-linecap="square" stroke-linejoin="round" transform="translate(117.196,1.5) translate(-2,-1.5)"/>
            </g>
        </g>
        <path id="laptop-Cover" fill="url(#Gradient-0)" fill-opacity="1" stroke="url(#Gradient-1)" stroke-linecap="round" d="M6,-3.72532L134,-2.72532C142,-2.72532,144.5,-2.22532,144,3.27468L136,55.2747C135,59.7747,135,64.2747,133,63.2747L133,65.2747L11,65.2747L11,63.2195C10,63.2195,8.5,63.7747,8,55.2747L1,0.27468C0.666838,-1.87376,1.5,-3.72532,6,-3.72532Z" filter="drop-shadow(0px -1px 0px #404140)" transform="translate(117.549,-25.5769) translate(-69.5,-32.1474)"/>
        <path id="laptop-screen" fill="url(#Gradient-3)" fill-opacity="1" stroke="url(#Gradient-2)" stroke-linecap="round" d="M14,1.2747L128,2.30838C134.883,2.30838,134.431,2.53309,134,7.47678L128,60.2747C127.781,62.7832,127.5,63.2747,125,63.2747L19,63.2747C18.1397,63.2747,17,62.7747,17,60.2747L11,6.4431C10.7134,4.51197,10.1289,1.2747,14,1.2747Z" filter="none" transform="translate(117.549,-25.5769) translate(-69.5,-32.1474)"/>
        <path id="left-hand-shadow" fill="#000000" stroke="none" d="M10.5,17.6373C9.78976,19.2588,14.5,10.6373,19.5,12.6373C20.8786,13.1887,21.6231,18.5142,17.5,22.6373C15.5,24.6373,9.5,30.6373,0,30.6373C-9.66498,30.6373,-13.5,24.3398,-13.5,11.6373C-13.5,-1.06516,-7.16498,-21.3627,2.5,-21.3627C8.5116,-21.3627,25.6566,-20.0298,22.5,-14.3627C14.5,0,13.1567,11.5716,10.5,17.6373Z" filter="none" fill-opacity="0.3" transform="translate(68.2954,49.5504) translate(-4.6922,-4.6373)"/>
        <path id="left-hand" fill="#f3d5b3" stroke="none" d="M10.5,17.6373C9.78976,19.2588,14.5,10.6373,19.5,12.6373C20.8786,13.1887,21.6231,18.5142,17.5,22.6373C15.5,24.6373,9.5,30.6373,0,30.6373C-9.66498,30.6373,-13.5,24.3398,-13.5,11.6373C-13.5,-1.06516,-7.16498,-21.3627,2.5,-21.3627C8.5116,-21.3627,25.6566,-20.0298,22.5,-14.3627C14.5,0,13.1567,11.5716,10.5,17.6373Z" filter="none" transform="translate(74.241,47.5503) translate(-4.6922,-4.6373)"/>
        <path id="left-arm" fill="#393836" stroke="none" stroke-linecap="round" d="M22.5,-21.5933C15.4999,-11.0933,2.18769,5.23318,-0.5,27.4067C-2.5,43.9067,-28.6083,48.8464,-35.5,34.4067C-46,12.4067,-9,-26.5933,2.5,-37.5933C4.3066,-39.3214,24.5,-24.5933,22.5,-21.5933Z" filter="none" transform="translate(44.9307,103.265) translate(7.61812,-7.12127)"/>
        <path id="right-hand-shadow" fill="#000000" stroke="none" d="M10.5,17.6373C9.78976,19.2588,14.5,10.6373,19.5,12.6373C20.8786,13.1887,21.6231,18.5142,17.5,22.6373C15.5,24.6373,9.5,30.6373,0,30.6373C-9.66498,30.6373,-13.5,24.3398,-13.5,11.6373C-13.5,-1.06516,-7.16498,-21.3627,2.5,-21.3627C8.5116,-21.3627,25.6566,-20.0298,22.5,-14.3627C14.5,0,13.1567,11.5716,10.5,17.6373Z" filter="none" fill-opacity="0.3" transform="translate(163.983,47.4987) rotate(7.03577) scale(-0.999997,0.999997) translate(-4.6922,-4.6373)"/>
        <path id="right-hand" fill="#f3d5b3" stroke="none" d="M10.5,17.6373C9.78976,19.2588,14.5,10.6373,19.5,12.6373C20.8786,13.1887,21.6231,18.5142,17.5,22.6373C15.5,24.6373,9.5,30.6373,0,30.6373C-9.66498,30.6373,-13.5,24.3398,-13.5,11.6373C-13.5,-1.06516,-7.16498,-21.3627,2.5,-21.3627C8.5116,-21.3627,25.6566,-20.0298,22.5,-14.3627C14.5,0,13.1567,11.5716,10.5,17.6373Z" filter="none" transform="translate(159.513,45.5831) rotate(7.03577) scale(-1,1) translate(-4.6922,-4.6373)"/>
        <path id="right-arm" fill="#393836" stroke="none" stroke-linecap="round" d="M28.2638,-25.21C27.2638,-22.71,-3.23623,5.79003,0,29.4067C4.34918,61.1452,-35.7362,37.79,-35.7362,10.79C-35.7362,-3.20997,-4.73623,-31.21,8.26377,-40.21C10.3193,-41.633,30.0927,-29.7822,28.2638,-25.21Z" filter="none" transform="translate(192.931,109.882) scale(-1,1) translate(7.61812,-7.12127)"/>
        <path id="shoulders" fill="#393836" filter="none" stroke="none" d="M98.4467,-5.84216C98.4467,16.5704,54.4295,40.5816,0,40.5816C-54.4295,40.5816,-99.5533,21.5704,-99.5533,-0.842162C-99.5533,-23.2548,-65.4488,-35.8422,-3.55333,-35.8422C50.8934,-35.8422,98.4467,-28.2548,98.4467,-5.84216Z" transform="translate(118.049,140.785) translate(0.553331,-7.39289)"/>
        <path id="back" fill="#201f1d" filter="none" stroke="none" d="M98,-15.6673C92.345,-3.52362,72.0468,23.397,38,33.3327C26.8918,36.5744,13.8579,33.3327,0,33.3327C-15.0972,33.3327,-26.5292,34.7297,-39,31.3327C-73.0619,22.0545,-98,-0.708719,-98,-15.6673C-98,-21.6185,-95,-34.6673,-63,-43.6673C-57.913,-45.098,-75.5,-38.6673,-80,-23.6673C-80.4154,-22.2824,-72.5,-33.6673,-61,-33.6673C-51.1766,-33.6673,-37,-23.6673,-24,-23.6673C-24,-23.6673,-21,-10.6673,0,-10.6673C23,-10.6673,29,-23.6673,29,-23.6673C29,-23.6673,40.5,-21.6673,55,-30.6673C68.19,-38.8542,85.8953,-26.0733,86,-27.6673C86.2817,-31.9551,55.0273,-44.2646,61,-43.6673C86,-41.1673,101.897,-24.0363,98,-15.6673Z" transform="translate(115.549,147.656) translate(2.5,-0.438377)"/>
        <path id="shoulder-shadow" fill="#151716" stroke="none" d="M92.5,-19.5615C89.64,-16.7015,70.8013,5.60267,49.5,14.4385C29.8373,22.5947,7.62,17.4385,4.5,17.4385C-1,17.4385,-28.6854,18.5197,-42.5,14.4385C-67.8201,6.95829,-85.03,-9.53299,-91.5,-19.5615C-95.6466,-25.9887,-77.6238,-3.37766,-49.5,6.43851C-34.0885,11.8176,-18,9.43851,0,6.43851C15.4701,3.86016,19.5,12.4385,34.5,10.4385C69.299,5.79863,98.3018,-25.3635,92.5,-19.5615Z" filter="none" transform="translate(115.549,163.112)"/>
        <ellipse id="neck" rx="27" ry="22.9385" fill="#4b4846" stroke="none" filter="none" transform="translate(119.937,125.612) translate(0,-6.87702)"/>
        <path id="hoodie" d="M79.6137,80.8319C56.6137,62.6893,105.654,26.4039,167.39,26.404C237.614,28.0533,285.614,68.4619,257.614,84.1306C257.614,84.1306,193.978,74.2346,167.39,74.2346C143.033,74.2346,79.6137,80.8319,79.6137,80.8319Z" fill="#4b4846" fill-opacity="1" fill-rule="evenodd" stroke="none" stroke-linecap="round" transform="translate(21.6197,10.5423) scale(0.586124,0.682022)"/>
        <path id="head" fill="#201f1d" stroke="none" d="M58.5,4.40952C58.5,33.5252,32.7564,57.1279,1,57.1279C-30.7564,57.1279,-56.5,33.5252,-56.5,4.40952C-56.5,-24.7061,-30.7564,-35.084,1,-35.084C32.7564,-35.084,58.5,-24.7061,58.5,4.40952Z" transform="translate(120.549,76.6598) translate(0,1.97455)"/>
    </g>
    <g id="coffee-cup" filter="none" transform="translate(475.425,45.2471) scale(1.82689,1.82689) translate(-17,-20.2251)">
        <path id="cup-shadow" fill="#000000" fill-opacity="0.2" stroke="none" stroke-linecap="square" d="M16.3733,3C16.3733,9.62741,4.87326,11,1.37326,11C-6.70487,11,-15.6267,3.62742,-15.6267,-3C-15.6267,-9.62742,-8.70487,-12,-0.62674,-12C7.45139,-12,16.3733,-3.62742,16.3733,3Z" transform="translate(16.6267,33.2586) translate(0,-2)"/>
        <path id="handle" fill="#f0b5d3" stroke="none" stroke-linecap="square" d="M7,0C7.20953,2.8062,3.54829,4.83654,0,5.5C-5.36318,6.50282,-9.55351,3.33307,-10,1.5C-10.7266,-1.48303,-5.05378,-1.44622,-6,-0.5C-7.5,1,-6.49653,2.01281,-5,2.5C-2.98355,3.15644,0.93084,3.00533,3,1.5C5.24808,-0.135495,2.48127,-1.76827,1,-3.5C0.440024,-4.15466,3.48735,-5.90503,4,-5.5C5.39117,-4.40087,6.83226,-2.24648,7,0Z" transform="translate(26,34.7586)"/>
        <path id="cup" fill="#f0b5d3" stroke="none" d="M16,-6.75C13.9221,0.554092,9.89541,7.4341,-1,9.25C-13,11.25,-16.3008,5.72119,-17,-2.75C-17.4266,-7.91816,-15.5,-20.75,-6,-23.75C9.40453,-28.6146,18.2316,-14.5944,16,-6.75Z" transform="translate(17,27.0086)"/>
        <ellipse id="rim" rx="16.5" ry="16.5" fill="#ffffff" stroke="none" transform="translate(19.5,18.2586) translate(-1.99998,-0.5)"/>
        <ellipse id="coffee" rx="13.5" ry="13.5" fill="#432918" stroke="none" transform="translate(20,19.9607) translate(-2.5,-2.5)"/>
    </g>
    <g id="phone" filter="drop-shadow(5px -3px 0px rgba(0,0,0,0.20))" transform="translate(548.437,223.99) rotate(59.1168) scale(0.844033,0.844033) translate(-25.0395,-46.5845)">
        <rect id="camera-speaker" width="3.63627" height="16.9438" fill="#232222" stroke="none" transform="translate(20.6467,4.97253) rotate(-89.2332) scale(1.51949,2.0318) translate(-1.81814,-8.47189)"/>
        <rect id="screen" width="50.079" height="72.6294" fill="url(#Gradient-4)" stroke="none" transform="translate(25.039,46.584) translate(-25.039,-36.9654)"/>
        <ellipse id="button" rx="2.30266" ry="3.5" fill="#232222" stroke="none" transform="translate(25.0653,85.7932) rotate(-88.667) scale(1.85569,1.85569) translate(-1.00511,0)"/>
        <path d="M64.902,0L28.265,0C24.554,0,21.545,3.009,21.545,6.72L21.545,86.449C21.545,90.161,24.553,93.169,28.265,93.169L64.902,93.169C68.615,93.169,71.624,90.161,71.624,86.449L71.624,6.72C71.623,3.009,68.615,0,64.902,0ZM42.088,3.973L51.079,3.973C51.402,3.973,51.665,4.236,51.665,4.56C51.665,4.883,51.402,5.146,51.079,5.146L42.088,5.146C41.764,5.146,41.502,4.883,41.502,4.56C41.502,4.236,41.765,3.973,42.088,3.973ZM33.126,2.563C33.644,2.563,34.064,2.983,34.064,3.501C34.064,4.019,33.645,4.439,33.126,4.439C32.607,4.439,32.188,4.019,32.188,3.501C32.188,2.983,32.608,2.563,33.126,2.563ZM28.876,2.001C29.705,2.001,30.376,2.673,30.376,3.501C30.376,4.329,29.705,5.001,28.876,5.001C28.047,5.001,27.376,4.329,27.376,3.501C27.376,2.673,28.047,2.001,28.876,2.001ZM48.93,89.758L44.239,89.758C42.751,89.758,41.546,88.553,41.546,87.067C41.546,85.58,42.751,84.375,44.239,84.375L48.93,84.375C50.418,84.375,51.623,85.58,51.623,87.067C51.623,88.553,50.418,89.758,48.93,89.758ZM68.777,82.248L24.391,82.248L24.391,10.92L68.777,10.92L68.777,82.248Z" transform="translate(-21.545,0)"/>
    </g>
    <g id="logo" name="TEXT" opacity="1" transform="translate(-8,44.9817)">
        <g id="Shape1">
            <desc shapeID="1" type="2" basicInfo-basicType="0" basicInfo-roundedRectRadius="12" basicInfo-polygonSides="6" basicInfo-starPoints="5" bounding="rect(-34.2164,-124.347,68.4327,248.695)" text="S O N Y A" font-familyName="Herculanum" font-pixelSize="45" font-bold="0" font-underline="0" font-alignment="1" strokeStyle="0" markerStart="0" markerEnd="0" shadowEnabled="0" shadowOffsetX="0" shadowOffsetY="2" shadowBlur="4" shadowOpacity="160" blurEnabled="0" blurRadius="4" transform="matrix(1,0,0,1,34.6378,161.542)" pers-center="0,0" pers-size="0,0" pers-start="0,0" pers-end="0,0" locked="0" mesh="" flag=""/>
            <path id="shapePath1" d="M29.9928,83.119C29.918,83.419,29.8788,83.6965,29.8752,83.9515C29.8716,84.2065,29.8812,84.469,29.9039,84.739C29.9265,84.889,30.0747,85.0465,30.3486,85.2115C30.6224,85.3765,30.9432,85.534,31.3108,85.684C31.6784,85.834,32.0609,85.954,32.4585,86.044C32.8561,86.134,33.1898,86.179,33.4598,86.179C34.5398,86.179,35.4959,85.864,36.328,85.234C37.16,84.604,37.8777,83.8915,38.4809,83.0965C39.0841,82.3015,39.5542,81.529,39.8912,80.779C40.2282,80.029,40.4266,79.534,40.4865,79.294C40.8156,77.974,40.9065,76.5865,40.7593,75.1315C40.6121,73.6765,40.4011,72.2665,40.1264,70.9015C39.8518,69.5365,39.6072,68.2615,39.3926,67.0765C39.1781,65.8915,39.168,64.909,39.3625,64.129C39.6767,62.869,40.3753,61.8115,41.4585,60.9565C42.5417,60.1015,44.0808,59.644,46.0757,59.584C46.9232,59.554,47.4819,59.449,47.7518,59.269C48.0216,59.089,48.2314,58.699,48.381,58.099C48.4408,57.859,48.3413,57.6565,48.0824,57.4915C47.8236,57.3265,47.5122,57.1915,47.1484,57.0865C46.7846,56.9815,46.4058,56.9065,46.012,56.8615C45.6182,56.8165,45.3163,56.794,45.1063,56.794C44.1463,56.794,43.136,57.1465,42.0752,57.8515C41.0144,58.5565,40.0268,59.389,39.1125,60.349C38.1981,61.309,37.4206,62.2615,36.78,63.2065C36.1394,64.1515,35.7555,64.879,35.6284,65.389C35.4863,65.959,35.4567,66.649,35.5398,67.459C35.6228,68.269,35.7603,69.1315,35.9521,70.0465C36.144,70.9615,36.3659,71.9065,36.6178,72.8815C36.8697,73.8565,37.0916,74.8015,37.2834,75.7165C37.4753,76.6315,37.6128,77.494,37.6958,78.304C37.7788,79.114,37.7456,79.819,37.596,80.419C37.4314,81.079,37.0324,81.6865,36.3991,82.2415C35.7657,82.7965,35.044,83.074,34.234,83.074C33.394,83.074,32.7245,82.9315,32.2256,82.6465C31.7267,82.3615,31.2672,82.219,30.8472,82.219C30.6972,82.219,30.5379,82.2865,30.3692,82.4215C30.2005,82.5565,30.0751,82.789,29.9928,83.119M30.9084,116.959C31.23,115.669,31.7017,114.439,32.3234,113.269C32.9451,112.099,33.6795,111.079,34.5264,110.209C35.3733,109.339,36.3272,108.642,37.3881,108.117C38.449,107.592,39.5644,107.329,40.7344,107.329C41.6044,107.329,42.4014,107.502,43.1254,107.847C43.8494,108.192,44.431,108.747,44.8703,109.512C45.3095,110.277,45.5671,111.289,45.6429,112.549C45.7188,113.809,45.5248,115.369,45.0611,117.229C44.6123,119.029,44.0114,120.507,43.2584,121.662C42.5055,122.817,41.6942,123.724,40.8246,124.384C39.9551,125.044,39.1004,125.494,38.2606,125.734C37.4207,125.974,36.6858,126.094,36.0558,126.094C34.5558,126.094,33.4193,125.719,32.6463,124.969C31.8733,124.219,31.3346,123.342,31.0301,122.337C30.7257,121.332,30.5957,120.319,30.64,119.299C30.6843,118.279,30.7738,117.499,30.9084,116.959M27.4889,117.679C27.0251,119.539,26.9025,121.174,27.1209,122.584C27.3394,123.994,27.7808,125.172,28.4452,126.117C29.1096,127.062,29.9519,127.774,30.9723,128.254C31.9926,128.734,33.0577,128.974,34.1677,128.974C35.5777,128.974,37.0026,128.704,38.4422,128.164C39.8818,127.624,41.2407,126.837,42.5187,125.802C43.7968,124.767,44.934,123.484,45.9305,121.954C46.927,120.424,47.6721,118.669,48.1657,116.689C48.6818,114.619,48.8888,112.827,48.7865,111.312C48.6842,109.797,48.3496,108.552,47.7827,107.577C47.2158,106.602,46.4503,105.882,45.4863,105.417C44.5222,104.952,43.4402,104.719,42.2402,104.719C40.1702,104.719,38.3086,105.117,36.6554,105.912C35.0021,106.707,33.5535,107.734,32.3093,108.994C31.0652,110.254,30.0423,111.649,29.2409,113.179C28.4394,114.709,27.8554,116.209,27.4889,117.679M25.4441,161.149C24.943,163.159,24.3798,164.907,23.7545,166.392C23.1293,167.877,22.5451,169.137,22.0021,170.172C21.459,171.207,20.9833,172.032,20.575,172.647C20.1666,173.262,19.9251,173.719,19.8503,174.019C19.8054,174.199,19.8317,174.364,19.9293,174.514C20.0269,174.664,20.1583,174.799,20.3234,174.919C20.4885,175.039,20.676,175.129,20.8861,175.189C21.0961,175.249,21.2761,175.279,21.4261,175.279C21.7861,175.279,22.1723,175.114,22.5845,174.784C22.9968,174.454,23.364,173.944,23.686,173.254C24.1653,172.174,24.6407,170.959,25.1123,169.609C25.5839,168.259,26.0311,166.917,26.454,165.582C26.8768,164.247,27.2679,163.009,27.6271,161.869C27.9863,160.729,28.2932,159.829,28.5478,159.169C28.9606,159.679,29.3791,160.167,29.8031,160.632C30.2272,161.097,30.7132,161.584,31.261,162.094C31.8088,162.604,32.458,163.159,33.2084,163.759C33.9588,164.359,34.8799,165.057,35.9717,165.852C37.0634,166.647,38.3653,167.562,39.8772,168.597C41.3892,169.632,43.1731,170.839,45.2291,172.219C45.6117,172.489,45.882,172.819,46.0397,173.209C46.1975,173.599,46.3234,173.967,46.4173,174.312C46.5113,174.657,46.594,174.957,46.6654,175.212C46.7369,175.467,46.8626,175.594,47.0426,175.594C47.2526,175.594,47.5338,175.549,47.8862,175.459C48.2387,175.369,48.5967,175.227,48.9603,175.032C49.3239,174.837,49.6631,174.589,49.9779,174.289C50.2927,173.989,50.4988,173.644,50.596,173.254C50.7007,172.834,50.7867,172.399,50.8539,171.949C50.9211,171.499,50.9901,170.982,51.061,170.397C51.1318,169.812,51.2401,169.137,51.3858,168.372C51.5316,167.607,51.7316,166.714,51.9859,165.694C52.8237,162.334,53.525,159.672,54.0899,157.707C54.6549,155.742,55.1226,154.227,55.4931,153.162C55.8637,152.097,56.1388,151.354,56.3185,150.934C56.4982,150.514,56.618,150.184,56.6778,149.944C56.7751,149.554,56.6718,149.307,56.368,149.202C56.0641,149.097,55.7472,149.044,55.4172,149.044C55.1472,149.044,54.8173,149.074,54.4273,149.134C54.0373,149.194,53.6568,149.277,53.2856,149.382C52.9144,149.487,52.5864,149.629,52.3015,149.809C52.0166,149.989,51.8405,150.214,51.7732,150.484C51.7134,150.724,51.7285,150.934,51.8186,151.114C51.9087,151.294,52.0064,151.504,52.1115,151.744C52.2167,151.984,52.2994,152.284,52.3596,152.644C52.4199,153.004,52.3902,153.484,52.2706,154.084C51.9043,155.794,51.5454,157.474,51.194,159.124C50.8426,160.774,50.4201,162.589,49.9264,164.569C49.7918,165.109,49.659,165.612,49.5281,166.077C49.3971,166.542,49.2605,166.999,49.1184,167.449C48.9762,167.899,48.819,168.379,48.6468,168.889C48.4747,169.399,48.2763,169.984,48.0517,170.644C46.0409,169.444,44.2008,168.252,42.5312,167.067C40.8617,165.882,39.2427,164.584,37.6742,163.174C36.1058,161.764,34.541,160.189,32.9798,158.449C31.4186,156.709,29.741,154.684,27.947,152.374C27.2864,151.534,26.7591,150.882,26.365,150.417C25.971,149.952,25.6595,149.607,25.4306,149.382C25.2017,149.157,25.0403,149.022,24.9466,148.977C24.8528,148.932,24.7609,148.909,24.6709,148.909C24.1009,148.909,23.5798,149.074,23.1075,149.404C22.6352,149.734,22.3654,150.034,22.2981,150.304C22.2607,150.454,22.2589,150.612,22.2928,150.777C22.3266,150.942,22.4243,151.182,22.5858,151.497C22.7472,151.812,22.9912,152.217,23.3178,152.712C23.6444,153.207,24.0817,153.859,24.6298,154.669C25.2679,155.599,25.6529,156.552,25.7848,157.527C25.9167,158.502,25.8032,159.709,25.4441,161.149M55.9203,195.844C55.838,196.174,55.6677,196.587,55.4093,197.082C55.1509,197.577,54.7856,198.109,54.3135,198.679C53.2793,199.939,52.1721,201.252,50.9917,202.617C49.8114,203.982,48.6536,205.317,47.5182,206.622C46.3828,207.927,45.3243,209.164,44.3426,210.334C43.3608,211.504,42.5665,212.524,41.9596,213.394C41.7116,212.584,41.1241,211.632,40.1971,210.537C39.2701,209.442,38.0992,208.152,36.6845,206.667C35.2697,205.182,33.6767,203.479,31.9054,201.559C30.1341,199.639,28.2764,197.464,26.3323,195.034C26.1446,194.824,26.0226,194.592,25.9662,194.337C25.9098,194.082,25.8702,193.849,25.8476,193.639C25.8249,193.429,25.7948,193.249,25.7572,193.099C25.7196,192.949,25.6108,192.874,25.4308,192.874C25.0708,192.874,24.6809,192.964,24.261,193.144C23.8411,193.324,23.4513,193.534,23.0914,193.774C22.7316,194.014,22.4242,194.254,22.1694,194.494C21.9146,194.734,21.7722,194.914,21.7423,195.034C21.66,195.364,21.6377,195.664,21.6754,195.934C21.7131,196.204,21.852,196.459,22.0921,196.699C24.9215,199.429,27.338,201.769,29.3419,203.719C31.3457,205.669,33.0062,207.342,34.3234,208.737C35.6405,210.132,36.6688,211.302,37.4082,212.247C38.1476,213.192,38.6788,214.009,39.0017,214.699C39.3247,215.389,39.4845,216.012,39.4811,216.567C39.4777,217.122,39.4013,217.699,39.2517,218.299C39.0572,219.079,38.8476,219.709,38.6229,220.189C38.3983,220.669,38.1773,221.074,37.96,221.404C37.7427,221.734,37.5404,222.034,37.3531,222.304C37.1658,222.574,37.031,222.874,36.9487,223.204C36.8664,223.534,36.9453,223.699,37.1853,223.699C37.2753,223.699,37.5209,223.677,37.9221,223.632C38.3233,223.587,38.7564,223.504,39.2213,223.384C39.6862,223.264,40.1024,223.129,40.4698,222.979C40.8372,222.829,41.0508,222.634,41.1107,222.394C41.2154,221.974,41.3032,221.562,41.3742,221.157C41.4452,220.752,41.5255,220.369,41.6153,220.009C41.8621,219.019,42.1053,218.164,42.3448,217.444C42.5843,216.724,42.8221,216.102,43.058,215.577C43.2938,215.052,43.5335,214.602,43.777,214.227C44.0205,213.852,44.2847,213.514,44.5695,213.214C45.2889,212.374,46.147,211.399,47.1438,210.289C48.1405,209.179,49.1841,208.032,50.2746,206.847C51.365,205.662,52.4555,204.477,53.5459,203.292C54.6364,202.107,55.6144,201.012,56.48,200.007C57.3456,199.002,58.0612,198.147,58.627,197.442C59.1928,196.737,59.5093,196.249,59.5767,195.979C59.6141,195.829,59.5277,195.664,59.3176,195.484C59.1075,195.304,58.8392,195.147,58.5129,195.012C58.1865,194.877,57.8546,194.764,57.517,194.674C57.1795,194.584,56.9207,194.539,56.7407,194.539C56.3507,194.539,56.1108,194.719,56.0211,195.079C55.9837,195.229,55.9669,195.357,55.9707,195.462C55.9745,195.567,55.9577,195.694,55.9203,195.844M41.9613,253.399L33.8163,253.399C33.3063,253.399,33.0774,253.294,33.1298,253.084C33.1672,252.934,33.2964,252.717,33.5175,252.432C33.7385,252.147,34.1001,251.659,34.6021,250.969L38.1314,246.199C38.2663,246.019,38.3899,245.824,38.5023,245.614C38.6146,245.404,38.7345,245.194,38.8619,244.984C38.9892,244.774,39.1072,244.602,39.2159,244.467C39.3245,244.332,39.4239,244.264,39.5139,244.264C39.7239,244.264,39.8346,244.452,39.8461,244.827C39.8576,245.202,39.9574,245.734,40.1453,246.424L41.9613,253.399M34.3801,255.469C34.8301,255.469,35.4583,255.477,36.2645,255.492C37.0708,255.507,37.8864,255.544,38.7115,255.604C39.5365,255.664,40.296,255.747,40.9898,255.852C41.6836,255.957,42.1618,256.084,42.4244,256.234C42.5594,256.294,42.7115,256.587,42.8806,257.112C43.0497,257.637,43.217,258.229,43.3824,258.889C43.5479,259.549,43.6927,260.202,43.8169,260.847C43.9411,261.492,44.0145,261.949,44.0372,262.219C44.0599,262.609,44.1221,262.962,44.2235,263.277C44.325,263.592,44.5032,263.779,44.7583,263.839C44.8933,263.899,45.1109,263.959,45.4109,264.019C45.7109,264.079,46.0335,264.139,46.3785,264.199C46.7236,264.259,47.0573,264.304,47.3799,264.334C47.7024,264.364,47.9536,264.379,48.1336,264.379C48.3736,264.379,48.6192,264.327,48.8704,264.222C49.1216,264.117,49.2883,263.899,49.3706,263.569C49.393,263.479,49.3329,263.329,49.1903,263.119C49.0476,262.909,48.8243,262.512,48.5201,261.927C48.216,261.342,47.8348,260.494,47.3765,259.384C46.9183,258.274,46.3848,256.774,45.776,254.884C44.814,251.884,44.0697,249.154,43.543,246.694C43.0163,244.234,42.5123,241.924,42.0308,239.764C41.918,239.254,41.7208,238.812,41.4393,238.437C41.1578,238.062,40.9271,237.874,40.7471,237.874C40.5971,237.874,40.374,237.927,40.0778,238.032C39.7816,238.137,39.478,238.272,39.1668,238.437C38.8557,238.602,38.5802,238.774,38.3403,238.954C38.1004,239.134,37.9618,239.299,37.9244,239.449C37.9019,239.539,37.9002,239.667,37.919,239.832C37.9379,239.997,37.9586,240.184,37.9813,240.394C38.0039,240.604,38.0247,240.792,38.0435,240.957C38.0624,241.122,38.0606,241.249,38.0382,241.339C37.8661,242.029,37.4242,242.959,36.7125,244.129C36.0008,245.299,35.1523,246.567,34.167,247.932C33.1816,249.297,32.1288,250.692,31.0085,252.117C29.8882,253.542,28.8466,254.862,27.8837,256.077C26.9207,257.292,26.1002,258.327,25.422,259.182C24.7438,260.037,24.3486,260.569,24.2362,260.779C23.7343,261.589,23.2115,262.152,22.668,262.467C22.1244,262.782,21.6127,262.999,21.1328,263.119C20.9078,263.179,20.741,263.277,20.6324,263.412C20.5237,263.547,20.417,263.824,20.3123,264.244C20.2749,264.394,20.2731,264.552,20.307,264.717C20.3408,264.882,20.4328,264.964,20.5828,264.964C20.6428,264.964,20.8246,264.957,21.1284,264.942C21.4321,264.927,21.7827,264.904,22.1802,264.874C22.5777,264.844,22.9845,264.807,23.4008,264.762C23.817,264.717,24.1788,264.679,24.4863,264.649C24.7038,264.619,24.9006,264.522,25.0767,264.357C25.2529,264.192,25.4495,263.854,25.6667,263.344C25.794,263.074,26.0506,262.677,26.4365,262.152C26.8224,261.627,27.2514,261.049,27.7235,260.419C28.1955,259.789,28.6676,259.159,29.1397,258.529C29.6118,257.899,29.9789,257.359,30.2411,256.909C30.4509,256.549,30.6551,256.272,30.8537,256.077C31.0523,255.882,31.2903,255.739,31.5678,255.649C31.8452,255.559,32.2033,255.507,32.642,255.492C33.0808,255.477,33.6601,255.469,34.3801,255.469Z" fill="#181818" fill-opacity="1" fill-rule="nonzero" stroke="#181818" stroke-linecap="round" stroke-linejoin="miter" stroke-miterlimit="2" stroke-opacity="1" stroke-width="1"/>
        </g>
        <g id="Shape2">
            <desc shapeID="2" type="2" basicInfo-basicType="0" basicInfo-roundedRectRadius="12" basicInfo-polygonSides="6" basicInfo-starPoints="5" bounding="rect(-34.2164,-124.347,68.4327,248.695)" text="N I N J A" font-familyName="Herculanum" font-pixelSize="45" font-bold="0" font-underline="0" font-alignment="1" strokeStyle="0" markerStart="0" markerEnd="0" shadowEnabled="0" shadowOffsetX="0" shadowOffsetY="2" shadowBlur="4" shadowOpacity="160" blurEnabled="0" blurRadius="4" transform="matrix(1,0,0,1,85.2489,161.542)" pers-center="0,0" pers-size="0,0" pers-start="0,0" pers-end="0,0" locked="0" mesh="" flag=""/>
            <path id="shapePath2" d="M76.0552,71.149C75.5541,73.159,74.9909,74.9065,74.3656,76.3915C73.7404,77.8765,73.1562,79.1365,72.6132,80.1715C72.0701,81.2065,71.5944,82.0315,71.1861,82.6465C70.7777,83.2615,70.5362,83.719,70.4614,84.019C70.4165,84.199,70.4428,84.364,70.5404,84.514C70.638,84.664,70.7694,84.799,70.9345,84.919C71.0995,85.039,71.2871,85.129,71.4971,85.189C71.7072,85.249,71.8872,85.279,72.0372,85.279C72.3972,85.279,72.7833,85.114,73.1956,84.784C73.6079,84.454,73.9751,83.944,74.2971,83.254C74.7764,82.174,75.2518,80.959,75.7234,79.609C76.195,78.259,76.6422,76.9165,77.0651,75.5815C77.4879,74.2465,77.879,73.009,78.2382,71.869C78.5974,70.729,78.9043,69.829,79.1589,69.169C79.5717,69.679,79.9902,70.1665,80.4142,70.6315C80.8383,71.0965,81.3243,71.584,81.8721,72.094C82.4199,72.604,83.0691,73.159,83.8195,73.759C84.5699,74.359,85.491,75.0565,86.5827,75.8515C87.6745,76.6465,88.9764,77.5615,90.4883,78.5965C92.0003,79.6315,93.7842,80.839,95.8401,82.219C96.2228,82.489,96.4931,82.819,96.6508,83.209C96.8086,83.599,96.9344,83.9665,97.0284,84.3115C97.1224,84.6565,97.2051,84.9565,97.2765,85.2115C97.348,85.4665,97.4737,85.594,97.6537,85.594C97.8637,85.594,98.1449,85.549,98.4973,85.459C98.8498,85.369,99.2078,85.2265,99.5714,85.0315C99.935,84.8365,100.274,84.589,100.589,84.289C100.904,83.989,101.11,83.644,101.207,83.254C101.312,82.834,101.398,82.399,101.465,81.949C101.532,81.499,101.601,80.9815,101.672,80.3965C101.743,79.8115,101.851,79.1365,101.997,78.3715C102.143,77.6065,102.343,76.714,102.597,75.694C103.435,72.334,104.136,69.6715,104.701,67.7065C105.266,65.7415,105.734,64.2265,106.104,63.1615C106.475,62.0965,106.75,61.354,106.93,60.934C107.109,60.514,107.229,60.184,107.289,59.944C107.386,59.554,107.283,59.3065,106.979,59.2015C106.675,59.0965,106.358,59.044,106.028,59.044C105.758,59.044,105.428,59.074,105.038,59.134C104.648,59.194,104.268,59.2765,103.897,59.3815C103.525,59.4865,103.197,59.629,102.913,59.809C102.628,59.989,102.452,60.214,102.384,60.484C102.324,60.724,102.34,60.934,102.43,61.114C102.52,61.294,102.617,61.504,102.723,61.744C102.828,61.984,102.911,62.284,102.971,62.644C103.031,63.004,103.001,63.484,102.882,64.084C102.515,65.794,102.156,67.474,101.805,69.124C101.454,70.774,101.031,72.589,100.538,74.569C100.403,75.109,100.27,75.6115,100.139,76.0765C100.008,76.5415,99.8716,76.999,99.7294,77.449C99.5872,77.899,99.4301,78.379,99.2579,78.889C99.0858,79.399,98.8874,79.984,98.6628,80.644C96.652,79.444,94.8119,78.2515,93.1423,77.0665C91.4728,75.8815,89.8538,74.584,88.2853,73.174C86.7169,71.764,85.1521,70.189,83.5909,68.449C82.0297,66.709,80.3521,64.684,78.5581,62.374C77.8975,61.534,77.3702,60.8815,76.9761,60.4165C76.5821,59.9515,76.2706,59.6065,76.0417,59.3815C75.8128,59.1565,75.6514,59.0215,75.5577,58.9765C75.4639,58.9315,75.372,58.909,75.282,58.909C74.712,58.909,74.1908,59.074,73.7186,59.404C73.2463,59.734,72.9765,60.034,72.9092,60.304C72.8718,60.454,72.87,60.6115,72.9039,60.7765C72.9377,60.9415,73.0354,61.1815,73.1969,61.4965C73.3583,61.8115,73.6023,62.2165,73.9289,62.7115C74.2555,63.2065,74.6928,63.859,75.2409,64.669C75.879,65.599,76.264,66.5515,76.3959,67.5265C76.5278,68.5015,76.4142,69.709,76.0552,71.149M87.2614,116.059C86.6705,118.429,86.175,120.447,85.7748,122.112C85.3747,123.777,85.0531,125.157,84.8101,126.252C84.5671,127.347,84.4064,128.202,84.3281,128.817C84.2498,129.432,84.2332,129.889,84.2784,130.189C84.3236,130.489,84.4193,130.677,84.5657,130.752C84.712,130.827,84.8901,130.864,85.1001,130.864C85.6101,130.864,86.0505,130.572,86.4214,129.987C86.7922,129.402,87.2021,128.209,87.6509,126.409C88.9972,121.009,90.095,116.757,90.9442,113.652C91.7933,110.547,92.4425,108.334,92.8916,107.014C93.0487,106.504,93.2416,106.062,93.4701,105.687C93.6986,105.312,93.8577,104.944,93.9474,104.584C93.9923,104.404,93.8365,104.187,93.4801,103.932C93.1237,103.677,92.7805,103.549,92.4505,103.549C92.2405,103.549,91.9199,103.662,91.4888,103.887C91.0577,104.112,90.6248,104.374,90.19,104.674C89.7552,104.974,89.3617,105.289,89.0094,105.619C88.6571,105.949,88.4585,106.204,88.4137,106.384C88.3538,106.624,88.3446,106.872,88.386,107.127C88.4274,107.382,88.557,107.674,88.7747,108.004C88.9024,108.214,88.9457,108.462,88.9046,108.747C88.8636,109.032,88.7907,109.384,88.686,109.804C88.4915,110.584,88.3045,111.424,88.1251,112.324C87.9457,113.224,87.6578,114.469,87.2614,116.059M76.0552,161.149C75.5541,163.159,74.9909,164.907,74.3656,166.392C73.7404,167.877,73.1562,169.137,72.6132,170.172C72.0701,171.207,71.5944,172.032,71.1861,172.647C70.7777,173.262,70.5362,173.719,70.4614,174.019C70.4165,174.199,70.4428,174.364,70.5404,174.514C70.638,174.664,70.7694,174.799,70.9345,174.919C71.0995,175.039,71.2871,175.129,71.4971,175.189C71.7072,175.249,71.8872,175.279,72.0372,175.279C72.3972,175.279,72.7833,175.114,73.1956,174.784C73.6079,174.454,73.9751,173.944,74.2971,173.254C74.7764,172.174,75.2518,170.959,75.7234,169.609C76.195,168.259,76.6422,166.917,77.0651,165.582C77.4879,164.247,77.879,163.009,78.2382,161.869C78.5974,160.729,78.9043,159.829,79.1589,159.169C79.5717,159.679,79.9902,160.167,80.4142,160.632C80.8383,161.097,81.3243,161.584,81.8721,162.094C82.4199,162.604,83.0691,163.159,83.8195,163.759C84.5699,164.359,85.491,165.057,86.5827,165.852C87.6745,166.647,88.9764,167.562,90.4883,168.597C92.0003,169.632,93.7842,170.839,95.8401,172.219C96.2228,172.489,96.4931,172.819,96.6508,173.209C96.8086,173.599,96.9344,173.967,97.0284,174.312C97.1224,174.657,97.2051,174.957,97.2765,175.212C97.348,175.467,97.4737,175.594,97.6537,175.594C97.8637,175.594,98.1449,175.549,98.4973,175.459C98.8498,175.369,99.2078,175.227,99.5714,175.032C99.935,174.837,100.274,174.589,100.589,174.289C100.904,173.989,101.11,173.644,101.207,173.254C101.312,172.834,101.398,172.399,101.465,171.949C101.532,171.499,101.601,170.982,101.672,170.397C101.743,169.812,101.851,169.137,101.997,168.372C102.143,167.607,102.343,166.714,102.597,165.694C103.435,162.334,104.136,159.672,104.701,157.707C105.266,155.742,105.734,154.227,106.104,153.162C106.475,152.097,106.75,151.354,106.93,150.934C107.109,150.514,107.229,150.184,107.289,149.944C107.386,149.554,107.283,149.307,106.979,149.202C106.675,149.097,106.358,149.044,106.028,149.044C105.758,149.044,105.428,149.074,105.038,149.134C104.648,149.194,104.268,149.277,103.897,149.382C103.525,149.487,103.197,149.629,102.913,149.809C102.628,149.989,102.452,150.214,102.384,150.484C102.324,150.724,102.34,150.934,102.43,151.114C102.52,151.294,102.617,151.504,102.723,151.744C102.828,151.984,102.911,152.284,102.971,152.644C103.031,153.004,103.001,153.484,102.882,154.084C102.515,155.794,102.156,157.474,101.805,159.124C101.454,160.774,101.031,162.589,100.538,164.569C100.403,165.109,100.27,165.612,100.139,166.077C100.008,166.542,99.8716,166.999,99.7294,167.449C99.5872,167.899,99.4301,168.379,99.2579,168.889C99.0858,169.399,98.8874,169.984,98.6628,170.644C96.652,169.444,94.8119,168.252,93.1423,167.067C91.4728,165.882,89.8538,164.584,88.2853,163.174C86.7169,161.764,85.1521,160.189,83.5909,158.449C82.0297,156.709,80.3521,154.684,78.5581,152.374C77.8975,151.534,77.3702,150.882,76.9761,150.417C76.5821,149.952,76.2706,149.607,76.0417,149.382C75.8128,149.157,75.6514,149.022,75.5577,148.977C75.4639,148.932,75.372,148.909,75.282,148.909C74.712,148.909,74.1908,149.074,73.7186,149.404C73.2463,149.734,72.9765,150.034,72.9092,150.304C72.8718,150.454,72.87,150.612,72.9039,150.777C72.9377,150.942,73.0354,151.182,73.1969,151.497C73.3583,151.812,73.6023,152.217,73.9289,152.712C74.2555,153.207,74.6928,153.859,75.2409,154.669C75.879,155.599,76.264,156.552,76.3959,157.527C76.5278,158.502,76.4142,159.709,76.0552,161.149M90.0199,209.434L91.8263,202.189C92.305,200.269,92.7369,198.477,93.1221,196.812C93.5072,195.147,93.8194,193.834,94.0588,192.874C94.1486,192.514,94.1033,192.214,93.9232,191.974C93.743,191.734,93.5329,191.614,93.2929,191.614C93.0529,191.614,92.678,191.734,92.1682,191.974C91.6583,192.214,91.1373,192.499,90.605,192.829C90.0727,193.159,89.6005,193.489,89.1882,193.819C88.7759,194.149,88.5473,194.404,88.5024,194.584C88.4351,194.854,88.4409,195.042,88.5197,195.147C88.5985,195.252,88.7129,195.334,88.863,195.394C89.013,195.454,89.1518,195.529,89.2794,195.619C89.4069,195.709,89.4858,195.874,89.516,196.114C89.5613,196.654,89.5468,197.284,89.4722,198.004C89.3977,198.724,89.239,199.722,88.9961,200.997C88.7532,202.272,88.3924,203.899,87.9138,205.879C87.4351,207.859,86.8143,210.379,86.0514,213.439C85.6849,214.909,85.202,216.214,84.6027,217.354C84.0035,218.494,83.3554,219.439,82.6584,220.189C81.9614,220.939,81.2643,221.509,80.567,221.899C79.8698,222.289,79.2212,222.484,78.6212,222.484C77.9912,222.484,77.5299,222.469,77.2374,222.439C76.9449,222.409,76.6636,222.394,76.3936,222.394C75.8836,222.394,75.5725,222.619,75.4603,223.069C75.4005,223.309,75.41,223.572,75.489,223.857C75.5679,224.142,75.6787,224.419,75.8214,224.689C75.9641,224.959,76.1255,225.184,76.3056,225.364C76.4857,225.544,76.6658,225.634,76.8458,225.634C76.9358,225.634,77.2339,225.582,77.7401,225.477C78.2463,225.372,78.8836,225.132,79.6521,224.757C80.4206,224.382,81.2771,223.834,82.2216,223.114C83.1661,222.394,84.1105,221.434,85.0547,220.234C85.9989,219.034,86.9072,217.557,87.7798,215.802C88.6524,214.047,89.3991,211.924,90.0199,209.434M92.5723,253.399L84.4274,253.399C83.9174,253.399,83.6885,253.294,83.7409,253.084C83.7783,252.934,83.9075,252.717,84.1286,252.432C84.3496,252.147,84.7112,251.659,85.2132,250.969L88.7425,246.199C88.8774,246.019,89.001,245.824,89.1134,245.614C89.2257,245.404,89.3456,245.194,89.4729,244.984C89.6003,244.774,89.7183,244.602,89.827,244.467C89.9356,244.332,90.035,244.264,90.125,244.264C90.335,244.264,90.4457,244.452,90.4572,244.827C90.4687,245.202,90.5685,245.734,90.7564,246.424L92.5723,253.399M84.9912,255.469C85.4412,255.469,86.0694,255.477,86.8756,255.492C87.6819,255.507,88.4975,255.544,89.3226,255.604C90.1476,255.664,90.9071,255.747,91.6009,255.852C92.2947,255.957,92.7729,256.084,93.0355,256.234C93.1705,256.294,93.3226,256.587,93.4917,257.112C93.6608,257.637,93.8281,258.229,93.9935,258.889C94.159,259.549,94.3038,260.202,94.428,260.847C94.5522,261.492,94.6256,261.949,94.6483,262.219C94.671,262.609,94.7332,262.962,94.8346,263.277C94.9361,263.592,95.1143,263.779,95.3694,263.839C95.5044,263.899,95.7219,263.959,96.022,264.019C96.322,264.079,96.6446,264.139,96.9896,264.199C97.3346,264.259,97.6684,264.304,97.991,264.334C98.3135,264.364,98.5647,264.379,98.7447,264.379C98.9847,264.379,99.2303,264.327,99.4815,264.222C99.7327,264.117,99.8994,263.899,99.9817,263.569C100.004,263.479,99.944,263.329,99.8014,263.119C99.6587,262.909,99.4353,262.512,99.1312,261.927C98.8271,261.342,98.4459,260.494,97.9876,259.384C97.5294,258.274,96.9959,256.774,96.3871,254.884C95.4251,251.884,94.6807,249.154,94.1541,246.694C93.6274,244.234,93.1234,241.924,92.6419,239.764C92.5291,239.254,92.3319,238.812,92.0504,238.437C91.7689,238.062,91.5382,237.874,91.3582,237.874C91.2082,237.874,90.9851,237.927,90.6889,238.032C90.3927,238.137,90.0891,238.272,89.7779,238.437C89.4668,238.602,89.1913,238.774,88.9514,238.954C88.7115,239.134,88.5729,239.299,88.5355,239.449C88.513,239.539,88.5112,239.667,88.5301,239.832C88.549,239.997,88.5697,240.184,88.5924,240.394C88.615,240.604,88.6357,240.792,88.6546,240.957C88.6735,241.122,88.6717,241.249,88.6492,241.339C88.4772,242.029,88.0353,242.959,87.3236,244.129C86.6119,245.299,85.7634,246.567,84.7781,247.932C83.7927,249.297,82.7399,250.692,81.6196,252.117C80.4993,253.542,79.4577,254.862,78.4948,256.077C77.5318,257.292,76.7113,258.327,76.0331,259.182C75.3549,260.037,74.9597,260.569,74.8473,260.779C74.3454,261.589,73.8226,262.152,73.2791,262.467C72.7355,262.782,72.2238,262.999,71.7439,263.119C71.5189,263.179,71.3521,263.277,71.2435,263.412C71.1348,263.547,71.0281,263.824,70.9234,264.244C70.886,264.394,70.8842,264.552,70.9181,264.717C70.9519,264.882,71.0439,264.964,71.1939,264.964C71.2539,264.964,71.4357,264.957,71.7395,264.942C72.0432,264.927,72.3938,264.904,72.7913,264.874C73.1888,264.844,73.5956,264.807,74.0119,264.762C74.4281,264.717,74.7899,264.679,75.0974,264.649C75.3149,264.619,75.5117,264.522,75.6878,264.357C75.864,264.192,76.0606,263.854,76.2778,263.344C76.4051,263.074,76.6617,262.677,77.0476,262.152C77.4335,261.627,77.8625,261.049,78.3346,260.419C78.8066,259.789,79.2787,259.159,79.7508,258.529C80.2229,257.899,80.59,257.359,80.8522,256.909C81.062,256.549,81.2662,256.272,81.4648,256.077C81.6634,255.882,81.9014,255.739,82.1789,255.649C82.4563,255.559,82.8144,255.507,83.2531,255.492C83.6919,255.477,84.2712,255.469,84.9912,255.469Z" fill="#181818" fill-opacity="1" fill-rule="nonzero" stroke="#181818" stroke-linecap="round" stroke-linejoin="miter" stroke-miterlimit="2" stroke-opacity="1" stroke-width="1"/>
        </g>
    </g>
</svg>
