<svg width="616" height="612" viewBox="0 0 616 612" fill="none" xmlns="http://www.w3.org/2000/svg">
<path d="M315.035 0.85068C315.196 4.29075 314.981 41.7015 314.659 65.6208L314.336 96.689H307.187H300.038L300.307 57.8269C300.415 36.4877 300.683 14.826 300.845 9.71962L301.167 0.474422H308.101C311.917 0.474422 315.035 0.635675 315.035 0.85068Z" fill="#D9D8BF"/>
<path d="M279.291 3.86093C279.882 8.16102 282.785 35.0903 282.623 35.1978C282.57 35.2516 280.419 35.5203 277.893 35.6816L273.324 36.0579L271.604 20.04C270.637 11.1711 269.884 3.69967 269.884 3.32341C269.884 2.94716 271.174 2.5709 272.948 2.35589C274.668 2.19464 276.711 1.92588 277.517 1.81838C278.861 1.60338 278.968 1.76463 279.291 3.86093Z" fill="#D9D8BF"/>
<path d="M343.255 2.57061C345.351 2.89312 345.405 2.94687 345.243 4.77441C344.975 8.69824 341.965 36.1113 341.803 36.2726C341.534 36.4876 333.149 35.4126 332.827 35.0901C332.719 34.9826 333.364 27.6724 334.332 18.8572C335.246 10.0958 335.998 2.73186 335.998 2.46311C335.998 2.0331 340.029 2.08685 343.255 2.57061Z" fill="#D9D8BF"/>
<path d="M373.033 7.24695C374.968 7.67696 376.527 8.05322 376.635 8.16072C376.796 8.32197 369.916 40.4114 369.593 40.6802C369.324 41.0027 362.068 39.6589 361.208 39.1214C360.724 38.8526 361.369 34.8213 364.003 22.566C367.873 4.29064 366.906 5.90317 373.033 7.24695Z" fill="#D9D8BF"/>
<path d="M248.653 7.03223C249.298 8.91352 255.425 38.2616 255.21 38.7992C255.049 39.2829 246.771 41.4867 246.449 41.1642C246.288 41.003 239.623 9.93479 239.569 9.12853C239.515 8.37601 241.88 7.56974 246.449 6.70973C247.847 6.44097 248.492 6.54847 248.653 7.03223Z" fill="#D9D8BF"/>
<path d="M402.381 15.5248C404.746 16.3311 406.627 17.1911 406.574 17.4598C406.466 18.2661 396.63 48.5818 396.415 48.7968C396.2 49.0118 388.513 46.6467 387.976 46.163C387.6 45.8405 397.597 13.8048 397.974 13.966C398.027 13.966 400.016 14.6648 402.381 15.5248Z" fill="#D9D8BF"/>
<path d="M217.961 14.3957C218.068 14.5569 219.627 19.287 221.455 24.9309C223.228 30.521 225.54 37.6162 226.561 40.6262L228.388 46.1089L224.088 47.5601C221.723 48.3127 219.627 48.7427 219.358 48.5277C218.928 48.0439 209.145 18.1583 209.145 17.2983C209.145 16.707 217.692 13.9119 217.961 14.3957Z" fill="#D9D8BF"/>
<path d="M431.622 26.6515C433.826 27.619 435.707 28.5328 435.815 28.6403C435.922 28.7478 432.966 35.7354 429.203 44.1743L422.43 59.4934L418.292 57.6121C416.034 56.5908 414.153 55.6771 414.045 55.5696C413.884 55.4083 425.763 28.3177 426.999 26.0602L427.644 24.8239L431.622 26.6515Z" fill="#D9D8BF"/>
<path d="M189.097 26.1138C189.312 26.6513 192.322 33.4777 195.816 41.3254L202.159 55.5694L197.966 57.5045C195.708 58.6332 193.666 59.332 193.505 59.117C193.075 58.687 180.121 29.5001 180.121 28.9626C180.121 28.5326 187.269 25.2 188.183 25.2C188.506 25.2 188.936 25.63 189.097 26.1138Z" fill="#D9D8BF"/>
<path d="M460.325 41.8093C463.228 43.5294 465.861 45.1956 466.184 45.5181C466.614 45.9482 459.734 58.0959 442.963 86.8528C429.848 109.267 418.937 127.811 418.722 128.08C418.077 128.832 406.359 121.845 406.574 120.877C406.843 119.695 454.197 38.9068 454.681 38.7993C454.896 38.7455 457.422 40.0893 460.325 41.8093Z" fill="#D9D8BF"/>
<path d="M138.731 68.0396C143.031 73.8447 147.439 79.8648 148.568 81.4236L150.557 84.2186L146.794 87.0137C144.698 88.5725 142.924 89.755 142.816 89.6475C130.077 72.3934 123.143 62.6107 123.52 62.2882C124.81 61.1594 130.131 57.4506 130.507 57.4506C130.722 57.4506 134.431 62.2344 138.731 68.0396Z" fill="#D9D8BF"/>
<path d="M489.135 60.4066C491.447 62.1266 492.414 63.1479 492.199 63.6854C492.038 64.1692 487.63 70.2968 482.416 77.3919C476.181 85.7771 472.741 90.0772 472.311 89.8084C469.946 88.3572 465.592 85.0783 465.539 84.7021C465.539 84.1108 484.566 58.364 485.211 58.149C485.534 58.0415 487.308 59.0628 489.135 60.4066Z" fill="#D9D8BF"/>
<path d="M117.069 88.7876L128.411 101.258L125.132 104.322C123.305 105.988 121.638 107.385 121.477 107.439C121.101 107.439 99.3315 83.4662 99.0628 82.8212C99.009 82.5524 100.46 81.0474 102.342 79.3811L105.782 76.371L117.069 88.7876Z" fill="#D9D8BF"/>
<path d="M513.377 80.0262L516.871 83.1438L515.742 84.4338C509.131 91.8515 494.403 107.977 494.134 107.977C493.812 107.977 487.899 102.494 487.684 101.957C487.523 101.634 502.519 84.7026 509.292 77.4999C509.722 77.0161 510.743 77.6612 513.377 80.0262Z" fill="#D9D8BF"/>
<path d="M95.5694 109.482C102.396 115.609 108.04 120.716 108.04 120.877C108.04 121.038 106.696 122.651 104.976 124.532L101.912 127.918L89.5492 116.899C82.7228 110.772 77.1864 105.612 77.1864 105.397C77.1864 105.128 78.5302 103.462 80.1427 101.634L83.0991 98.3553L95.5694 109.482Z" fill="#D9D8BF"/>
<path d="M535.254 102.064C536.813 103.784 538.103 105.397 538.049 105.612C537.995 106.096 514.237 127.489 513.431 127.757C513.216 127.811 511.657 126.36 509.991 124.479L506.981 121.038L519.397 109.912C526.224 103.838 531.975 98.8393 532.137 98.893C532.298 98.893 533.749 100.291 535.254 102.064Z" fill="#D9D8BF"/>
<path d="M77.0792 132.219C86.1632 138.83 90.3558 142.163 90.1408 142.7C89.3883 144.635 85.3032 149.419 84.6044 149.15C82.6694 148.398 58.1587 130.23 58.3737 129.692C58.6425 128.779 63.1576 122.543 63.4801 122.543C63.6413 122.543 69.769 126.897 77.0792 132.219Z" fill="#D9D8BF"/>
<path d="M555.034 127.059C557.184 130.122 557.453 130.768 556.862 131.359C555.841 132.38 530.9 150.387 530.524 150.44C530.148 150.44 525.202 143.56 525.256 143.023C525.256 142.593 550.465 124.264 551.702 123.78C552.239 123.619 553.368 124.747 555.034 127.059Z" fill="#D9D8BF"/>
<path d="M87.2381 170.435C109.652 183.82 127.981 195 127.981 195.215C127.981 195.484 126.423 198.332 124.488 201.504L120.994 207.363L108.47 199.891C60.4163 171.296 39.0233 158.395 38.9158 158.073C38.7008 157.535 45.366 146.516 46.011 146.301C46.3335 146.247 64.8776 157.105 87.2381 170.435Z" fill="#D9D8BF"/>
<path d="M570.031 148.935C570.407 149.634 572.02 152.321 573.525 155.009C575.621 158.771 576.105 159.954 575.567 160.438C575.245 160.76 557.292 171.134 535.791 183.443C514.237 195.806 495.854 206.341 494.887 206.932L493.113 207.954L489.512 201.718C487.577 198.225 486.018 195.376 486.072 195.322C486.34 195.107 566.806 149.042 568.042 148.344C569.063 147.806 569.332 147.914 570.031 148.935Z" fill="#D9D8BF"/>
<path d="M43.8617 185.808C51.8706 189.302 58.8046 192.312 59.3421 192.527C60.1483 192.85 60.0408 193.334 58.3745 197.042C57.2995 199.3 56.3857 201.235 56.2782 201.342C56.117 201.504 26.285 188.603 25.8012 188.12C25.5862 187.958 26.285 185.916 27.4138 183.658L29.3488 179.52L43.8617 185.808Z" fill="#D9D8BF"/>
<path d="M586.962 181.186C587.231 181.885 588.037 183.766 588.79 185.486L590.134 188.496L574.761 195.269L559.334 201.988L557.399 197.849C556.324 195.591 555.572 193.549 555.787 193.387C556.109 193.011 585.78 180.003 586.263 180.003C586.371 180.003 586.693 180.541 586.962 181.186Z" fill="#D9D8BF"/>
<path d="M24.7791 210.641C28.1654 211.77 35.2606 214.081 40.5282 215.748C46.7096 217.683 50.0421 219.027 49.8809 219.403C49.7734 219.779 49.0746 221.822 48.3759 223.972C47.4083 226.982 46.9246 227.788 46.2796 227.519C45.8495 227.358 38.7544 225.1 30.5305 222.467C22.3065 219.887 15.4801 217.629 15.3189 217.468C14.9426 217.145 17.7377 208.491 18.2215 208.545C18.4365 208.545 21.3928 209.513 24.7791 210.641Z" fill="#D9D8BF"/>
<path d="M598.788 213.866C599.487 216.231 599.917 218.328 599.81 218.489C599.218 219.026 569.064 228.433 568.526 228.218C567.666 227.895 565.301 220.316 565.893 219.779C566.215 219.403 596.638 209.566 597.337 209.566C597.445 209.566 598.143 211.501 598.788 213.866Z" fill="#D9D8BF"/>
<path d="M26.2838 242.516C34.9378 244.344 42.033 245.956 42.0867 246.117C42.1942 246.709 40.7429 254.126 40.4204 254.61C40.0979 255.148 8.54592 248.912 7.84715 248.16C7.25589 247.622 9.24468 239.13 9.94345 239.183C10.266 239.183 17.6299 240.742 26.2838 242.516Z" fill="#D9D8BF"/>
<path d="M607.12 244.612C607.603 247.031 607.926 249.074 607.818 249.127C607.55 249.396 576.696 255.792 575.729 255.792C575.084 255.792 574.654 254.771 574.009 251.331C573.525 248.912 573.203 246.87 573.256 246.816C573.364 246.655 604.862 240.205 605.507 240.205C605.937 240.205 606.528 241.871 607.12 244.612Z" fill="#D9D8BF"/>
<path d="M611.58 274.766C611.849 277.185 611.903 279.335 611.742 279.497C611.473 279.873 578.953 283.367 578.631 283.098C578.577 282.99 578.255 280.894 578.04 278.475C577.556 274.229 577.61 274.014 578.631 273.799C579.276 273.691 585.941 272.939 593.466 272.186C600.991 271.434 608.033 270.735 609.162 270.574L611.097 270.305L611.58 274.766Z" fill="#D9D8BF"/>
<path d="M21.2861 271.703C28.0587 272.401 34.455 273.1 35.4763 273.315L37.3038 273.584L36.9276 277.991C36.7126 280.41 36.4438 282.453 36.3363 282.56C36.1213 282.775 10.6434 280.356 5.05328 279.604C2.95699 279.335 2.79574 279.174 3.01074 277.884C3.11824 277.131 3.387 275.089 3.54825 273.369L3.87076 270.305L6.39705 270.359C7.79457 270.413 14.4597 271.004 21.2861 271.703Z" fill="#D9D8BF"/>
<path d="M96.2684 306.587V313.844L48.2686 313.736L0.322519 313.575L0.161265 306.426L1.16836e-05 299.331H48.1611H96.2684V306.587Z" fill="#D9D8BF"/>
<path d="M545.091 300.244C547.886 300.298 564.817 300.621 582.663 300.943C600.562 301.266 615.236 301.588 615.289 301.642C615.397 301.696 615.289 304.975 615.128 308.952L614.806 316.101L606.689 315.779C602.228 315.617 580.781 315.187 559.066 314.865C537.35 314.542 519.397 314.112 519.236 313.897C519.075 313.736 519.075 310.511 519.182 306.695L519.397 299.868L529.718 299.976C535.362 300.029 542.295 300.137 545.091 300.244Z" fill="#D9D8BF"/>
<path d="M36.336 334C36.551 336.526 36.6585 338.676 36.551 338.784C36.2822 339.053 3.65532 342.332 3.44032 342.17C3.06406 341.794 2.36529 333.463 2.6878 333.14C2.84905 332.979 9.67544 332.173 17.7918 331.366C25.9083 330.56 33.3259 329.808 34.2934 329.646L35.9597 329.378L36.336 334Z" fill="#D9D8BF"/>
<path d="M596.047 331.743L611.796 333.409L611.419 337.763C611.258 340.128 610.936 342.224 610.721 342.439C610.506 342.654 603.464 342.117 595.079 341.257C586.64 340.397 579.222 339.644 578.524 339.644C577.287 339.644 577.287 339.537 577.61 336.527C578.201 330.668 578.416 329.969 579.384 330.023C579.867 330.077 587.393 330.883 596.047 331.743Z" fill="#D9D8BF"/>
<path d="M590.618 360.822C599.218 362.649 606.474 364.262 606.636 364.477C606.904 364.746 605.453 372.862 605.023 373.4C604.915 373.507 573.955 367.218 572.719 366.788C572.02 366.573 573.632 357.758 574.439 357.597C574.707 357.543 581.964 358.994 590.618 360.822Z" fill="#D9D8BF"/>
<path d="M40.5824 361.736C41.1199 364.155 41.3887 366.197 41.2274 366.358C40.9049 366.735 9.03043 373.4 8.76167 373.185C8.65417 373.131 8.11666 371.089 7.57915 368.67C6.88038 365.498 6.77288 364.262 7.20289 364.047C7.90165 363.832 38.8086 357.382 39.3462 357.382C39.5074 357.382 40.0449 359.317 40.5824 361.736Z" fill="#D9D8BF"/>
<path d="M48.0537 388.665C48.8063 391.084 49.3975 393.127 49.3438 393.18C49.29 393.234 42.1949 395.492 33.6485 398.233C25.0483 400.974 17.8994 403.286 17.6844 403.447C17.1469 403.716 14.5131 394.847 14.9968 394.417C15.2118 394.202 16.5556 393.664 18.0606 393.234C19.5119 392.75 26.0696 390.708 32.5734 388.665C39.0773 386.569 44.8824 384.741 45.4737 384.58C46.4412 384.311 46.7637 384.795 48.0537 388.665Z" fill="#D9D8BF"/>
<path d="M583.791 389.74C592.23 392.374 599.218 394.685 599.325 394.793C599.648 395.115 597.122 403.07 596.584 403.393C596.315 403.554 594.273 403.07 591.962 402.318C589.704 401.619 582.716 399.362 576.535 397.373C570.3 395.438 565.14 393.718 565.032 393.61C564.602 393.18 567.29 384.795 567.881 384.849C568.204 384.849 575.352 387.053 583.791 389.74Z" fill="#D9D8BF"/>
<path d="M124.972 411.51C126.907 414.896 128.466 417.798 128.412 417.852C127.552 418.551 45.0978 465.476 44.9903 465.368C44.3991 464.562 38.2177 453.435 38.2177 453.167C38.2714 452.952 55.7406 442.793 77.0798 430.591C98.4191 418.39 117.124 407.693 118.63 406.833L121.317 405.221L124.972 411.51Z" fill="#D9D8BF"/>
<path d="M535.039 430.215C557.454 443.599 575.783 454.779 575.783 454.994C575.837 456.069 568.956 466.981 568.419 466.82C567.613 466.497 487.416 418.659 486.878 418.175C486.448 417.745 493.329 405.705 493.974 405.812C494.135 405.812 512.625 416.777 535.039 430.215Z" fill="#D9D8BF"/>
<path d="M57.5678 414.089C58.4278 415.971 59.1803 417.96 59.2879 418.443C59.3954 419.088 57.7828 420.056 52.999 422.152C36.1211 429.57 28.9185 432.687 28.811 432.526C28.0585 431.72 25.3709 424.302 25.6934 423.98C26.0159 423.657 43.2163 416.025 54.2353 411.348L56.009 410.542L57.5678 414.089Z" fill="#D9D8BF"/>
<path d="M574.116 418.658C582.233 422.152 588.898 425.216 588.898 425.485C588.898 426.237 585.673 433.709 585.35 433.709C585.028 433.709 555.142 420.808 554.82 420.486C554.39 420.11 558.152 412.208 558.744 412.208C559.066 412.208 566 415.111 574.116 418.658Z" fill="#D9D8BF"/>
<path d="M542.887 472.302C550.143 477.57 556.11 482.085 556.217 482.407C556.54 483.375 551.541 489.717 550.681 489.395C548.746 488.642 524.182 470.474 524.397 469.937C524.665 469.023 529.181 462.788 529.503 462.788C529.664 462.734 535.684 467.034 542.887 472.302Z" fill="#D9D8BF"/>
<path d="M86.5936 466.551C88.1524 468.593 89.2274 470.528 88.9587 470.743C88.2599 471.335 63.3193 489.341 62.6205 489.771C62.0293 490.094 57.0304 483.805 57.0304 482.73C57.0304 482.3 66.7594 475.043 82.8848 463.433C83.691 462.842 84.1748 463.218 86.5936 466.551Z" fill="#D9D8BF"/>
<path d="M202.696 488.105C205.813 489.878 208.393 491.437 208.501 491.545C208.662 491.652 160.985 573.408 160.34 574.106C159.91 574.536 148.138 567.764 148.138 567.065C148.138 566.151 195.977 484.772 196.514 484.772C196.783 484.772 199.578 486.277 202.696 488.105Z" fill="#D9D8BF"/>
<path d="M104.6 488.051C106.266 489.878 107.449 491.545 107.18 491.76C106.965 492.029 101.321 497.081 94.6562 503.048L82.5622 513.905L79.4446 510.519C77.7246 508.691 76.4346 507.025 76.4883 506.81C76.7571 506.273 100.784 484.772 101.16 484.772C101.375 484.772 102.88 486.277 104.6 488.051Z" fill="#D9D8BF"/>
<path d="M419.474 486.492C420.711 488.427 465.055 567.549 465.324 568.301C465.485 568.785 463.55 570.183 459.68 572.333C456.455 574.106 453.606 575.611 453.338 575.611C452.961 575.558 407.488 494.931 406.681 492.835C406.466 492.243 408.025 491.115 412.164 488.803C415.335 487.03 418.13 485.524 418.345 485.417C418.56 485.309 419.044 485.793 419.474 486.492Z" fill="#D9D8BF"/>
<path d="M525.041 496.974L537.511 508.1L534.663 511.326C533.104 513.099 531.599 514.604 531.33 514.712C530.846 514.873 506.819 493.695 506.497 492.835C506.336 492.405 511.496 486.331 512.302 485.955C512.463 485.901 518.215 490.846 525.041 496.974Z" fill="#D9D8BF"/>
<path d="M504.239 517.345C510.313 524.064 515.258 529.654 515.258 529.869C515.258 530.514 509.131 535.943 508.539 535.728C508.217 535.621 503.003 530.138 496.983 523.473L485.964 511.379L489.296 508.315C491.178 506.595 492.79 505.198 492.952 505.198C493.113 505.198 498.165 510.68 504.239 517.345Z" fill="#D9D8BF"/>
<path d="M124.219 508.315L127.605 511.379L116.479 523.634C110.351 530.353 105.083 535.836 104.815 535.836C103.793 535.836 98.3645 530.299 98.6333 529.547C98.9558 528.687 120.026 505.305 120.51 505.251C120.725 505.197 122.337 506.595 124.219 508.315Z" fill="#D9D8BF"/>
<path d="M145.343 525.623C147.332 527.128 148.945 528.472 148.945 528.633C148.945 528.848 132.819 550.994 130.132 554.487L129.164 555.724L125.563 552.982C123.467 551.37 122.123 549.972 122.284 549.542C122.499 548.897 140.452 524.279 141.366 523.312C141.581 523.097 143.354 524.118 145.343 525.623Z" fill="#D9D8BF"/>
<path d="M481.61 536.588C486.932 543.845 491.339 549.972 491.339 550.187C491.285 550.456 489.727 551.8 487.792 553.251C484.835 555.401 484.136 555.724 483.545 555.133C482.148 553.574 464.464 529.332 464.464 528.902C464.464 528.418 469.892 524.172 471.129 523.688C471.612 523.527 475.16 527.881 481.61 536.588Z" fill="#D9D8BF"/>
<path d="M422.592 556.154C430.547 574.16 434.954 584.319 434.793 584.481C434.686 584.642 432.751 585.556 430.547 586.577L426.462 588.404L419.85 573.569C416.249 565.345 413.185 558.411 413.078 558.089C412.917 557.82 414.744 556.637 417.163 555.616L421.463 553.681L422.592 556.154Z" fill="#D9D8BF"/>
<path d="M197.213 555.509C199.364 556.53 201.03 557.497 200.922 557.712C200.761 557.981 197.697 564.808 194.096 572.924C190.495 581.041 187.485 587.759 187.377 587.867C187.323 587.921 185.388 587.222 183.131 586.254C179.906 584.857 179.046 584.266 179.261 583.513C179.852 581.094 192.268 553.627 192.752 553.627C193.021 553.627 195.063 554.487 197.213 555.509Z" fill="#D9D8BF"/>
<path d="M223.121 565.238C225.324 565.99 227.206 566.689 227.313 566.743C227.475 566.85 217.369 598.241 217.047 598.51C216.939 598.617 214.897 598.026 212.478 597.273C209.737 596.36 208.124 595.553 208.285 595.177C208.447 594.801 210.758 587.598 213.499 579.159C216.241 570.72 218.606 563.786 218.767 563.84C218.928 563.84 220.917 564.485 223.121 565.238Z" fill="#D9D8BF"/>
<path d="M395.662 564.646C395.662 564.808 397.651 570.935 400.016 578.192C402.435 585.502 404.693 592.489 405.069 593.726L405.768 595.983L401.629 597.381C399.371 598.133 397.382 598.725 397.167 598.725C396.737 598.725 386.256 567.065 386.578 566.796C386.686 566.689 388.352 566.098 390.233 565.453C393.674 564.324 395.662 564.055 395.662 564.646Z" fill="#D9D8BF"/>
<path d="M368.41 572.225C368.518 572.44 370.184 579.75 372.065 588.404C374.645 600.606 375.29 604.261 374.753 604.584C373.947 605.121 366.636 606.465 366.368 606.142C366.26 606.035 364.648 599.047 362.874 590.662C361.046 582.223 359.488 574.967 359.326 574.429C359.111 573.73 359.649 573.462 361.638 573.032C366.851 571.903 368.141 571.742 368.41 572.225Z" fill="#D9D8BF"/>
<path d="M249.513 572.602C251.125 572.978 252.845 573.408 253.329 573.569C254.028 573.838 253.598 576.311 250.642 590.232C248.76 599.155 247.148 606.573 247.094 606.626C246.933 606.841 238.763 604.853 238.386 604.53C238.171 604.261 239.515 596.844 241.45 587.975C244.138 575.289 245.051 571.849 245.696 571.903C246.126 571.957 247.846 572.279 249.513 572.602Z" fill="#D9D8BF"/>
<path d="M341.428 577.332C341.428 577.708 342.234 585.179 343.201 593.887C344.169 602.595 344.814 609.905 344.653 610.12C344.491 610.281 342.341 610.657 339.869 610.872C336.321 611.141 335.461 611.087 335.461 610.496C335.461 610.066 334.709 603.24 333.849 595.231C332.935 587.276 332.236 580.127 332.236 579.32C332.236 577.923 332.397 577.815 335.3 577.493C337.02 577.332 339.063 577.009 339.869 576.902C340.89 576.687 341.374 576.848 341.428 577.332Z" fill="#D9D8BF"/>
<path d="M278.861 577.17C280.366 577.385 281.763 577.654 281.871 577.762C282.086 577.977 279.667 601.681 278.699 608.83L278.431 611.141L274.292 610.765C272.034 610.55 269.938 610.227 269.669 609.958C269.347 609.69 269.83 603.132 270.905 593.511C271.819 584.696 272.572 577.332 272.572 577.063C272.572 576.633 274.668 576.687 278.861 577.17Z" fill="#D9D8BF"/>
<path d="M149.131 44.1805L161.382 37.5583L208.4 120.998L195.818 128.282L149.131 44.1805Z" fill="#D9D8BF"/>
<rect width="33.416" height="281.579" transform="matrix(1 0 0 -1 290.806 281.579)" fill="#FD6C17"/>
<rect width="33.416" height="172.486" transform="matrix(0.49501 -0.868887 -0.868887 -0.49501 489.87 430.417)" fill="#FD6C17"/>
<circle r="52.3354" transform="matrix(-1 0 0 1 307.335 309.344)" fill="#ECEBD3"/>
<circle r="36.6102" transform="matrix(-1 0 0 1 307.335 309.344)" fill="#FD6C17"/>
</svg>
